<?xml version="1.0" encoding="utf-8"?>
<!-- Generator: Adobe Illustrator 28.2.0, SVG Export Plug-In . SVG Version: 6.00 Build 0)  -->
<svg version="1.1" id="Layer_1" xmlns="http://www.w3.org/2000/svg" xmlns:xlink="http://www.w3.org/1999/xlink" x="0px" y="0px"
	 viewBox="0 0 1080 1080" style="enable-background:new 0 0 1080 1080;" xml:space="preserve">
<path d="M207.36,553.74c-10.68,25.05-30.8,37.78-57.08,37.78c-40.86,0-68.37-32.85-68.37-81.92v-42.71h20.74v42.5
	c0,38.81,19.09,64.68,47.43,64.68c17.25,0,31.21-8.01,37.78-26.08L207.36,553.74z M182.52,450.05h-75.35V432.6h79.46v13.76h18.89
	v26.69h-23V450.05z"/>
<path d="M223.78,434.45h8.42v-0.41l38.39,0.21v78.43h7.39v18.89h9.24v19.1h8.21v19.51h9.03v-19.51h8.21v-19.1h9.24v-18.89h7.39
	v-78.43l38.4-0.21v0.41h8.42v153.99h-20.74V457.65h-8.42v60.98h-7.6v18.89h-9.03v18.89h-8.01v18.89h-10.27v13.14h-26.49V575.3h-8.01
	v-18.89h-8.01v-18.89h-9.03v-18.89h-7.6v-60.98h-8.42v130.79h-20.74V434.45z"/>
<path d="M413.29,452.31v46.4h49.69v9.03h16.01v17.45h-21.15v-9.03h-44.56v54.21h76.79v18.07h-97.53V434.45h97.53v17.86H413.29z"/>
<path d="M506.5,519.04h9.03v-17.66h8.83v-18.07h10.88v-18.07h9.45v-18.07h12.11v-12.52h31.21v12.52h9.44v18.07h9.44v18.07h10.88
	v18.07h8.83v17.66h9.03v69.4H614.7V525h-9.03v-18.07h-8.83v-18.07h-10.88v-18.07h-9.44v-18.68h-10.88v18.68h-9.44v18.07h-10.88
	v18.07h-8.83V525h-9.03v63.44H506.5V519.04z"/>
<path d="M672.81,434.45v82.33h3.28v-11.29h8.63v-12.32h10.06v-11.29h10.47v-12.52h9.85v-11.29h8.63v-12.32h10.06v-11.29h33.67
	v153.99h-20.74V457.86h-3.7v11.29h-8.62v12.11h-9.85v11.5h-10.47v12.52h-10.06v11.29h-8.62v12.11h-9.86v11.5h-12.73v48.25h-20.74
	V434.45H672.81z"/>
<path d="M898.66,451.9h-50.1v136.54h-20.74V451.9h-50.1v-17.45h120.93V451.9z"/>
<path d="M929.66,452.31v46.4h49.69v9.03h16.02v17.45h-21.15v-9.03h-44.55v54.21h76.79v18.07h-97.53V434.45h97.53v17.86H929.66z"/>
</svg>
